<svg width="997" height="245" viewBox="0 0 997 245" fill="none" xmlns="http://www.w3.org/2000/svg">
<path d="M410.109 84.1475C419.759 84.1475 428.225 86.0336 435.507 89.806C442.876 93.5783 448.534 98.9737 452.482 105.992C456.518 112.923 458.535 120.994 458.535 130.205C458.535 139.417 456.518 147.488 452.482 154.419C448.534 161.261 442.876 166.569 435.507 170.341C428.225 174.114 419.759 176 410.109 176H392C384.268 176 378 169.732 378 162V98.1475C378 90.4155 384.268 84.1475 392 84.1475H410.109ZM409.451 160.34C419.101 160.34 426.558 157.708 431.822 152.445C437.086 147.181 439.718 139.768 439.718 130.205C439.718 120.643 437.086 113.186 431.822 107.834C426.558 102.395 419.101 99.6755 409.451 99.6755C402.256 99.6755 396.423 105.508 396.423 112.703V147.313C396.423 154.508 402.256 160.34 409.451 160.34Z" fill="black"/>
<path d="M487.237 93.5814C483.991 93.5814 481.271 92.5725 479.078 90.5547C476.973 88.4492 475.92 85.8612 475.92 82.7907C475.92 79.7202 476.973 77.176 479.078 75.1583C481.271 73.0528 483.991 72 487.237 72C490.483 72 493.159 73.0528 495.264 75.1583C497.457 77.176 498.554 79.7202 498.554 82.7907C498.554 85.8612 497.457 88.4492 495.264 90.5547C493.159 92.5725 490.483 93.5814 487.237 93.5814ZM496.317 102.267V175.17H477.894V102.267H496.317Z" fill="black"/>
<path d="M543.075 101.082C548.514 101.082 553.295 102.179 557.419 104.372C561.542 106.478 564.788 109.241 567.157 112.662V102.267H585.711V175.696C585.711 182.451 584.352 188.461 581.632 193.724C578.912 199.076 574.833 203.287 569.394 206.357C563.954 209.516 557.375 211.095 549.655 211.095C539.303 211.095 530.793 208.682 524.125 203.857C517.546 199.032 513.817 192.452 512.94 184.118H531.231C532.197 187.452 534.258 190.084 537.416 192.014C540.662 194.031 544.566 195.04 549.128 195.04C554.48 195.04 558.822 193.417 562.156 190.171C565.49 187.013 567.157 182.188 567.157 175.696V164.379C564.788 167.8 561.498 170.652 557.287 172.932C553.164 175.213 548.426 176.354 543.075 176.354C536.934 176.354 531.319 174.775 526.231 171.617C521.143 168.458 517.107 164.028 514.124 158.326C511.229 152.535 509.782 145.912 509.782 138.455C509.782 131.086 511.229 124.55 514.124 118.847C517.107 113.145 521.099 108.759 526.099 105.688C531.188 102.618 536.846 101.082 543.075 101.082ZM567.157 138.718C567.157 134.244 566.279 130.428 564.525 127.269C562.77 124.023 560.401 121.567 557.419 119.9C554.436 118.146 551.234 117.268 547.812 117.268C544.391 117.268 541.233 118.102 538.338 119.769C535.442 121.435 533.074 123.892 531.231 127.138C529.477 130.296 528.6 134.068 528.6 138.455C528.6 142.841 529.477 146.701 531.231 150.035C533.074 153.281 535.442 155.781 538.338 157.536C541.32 159.291 544.479 160.168 547.812 160.168C551.234 160.168 554.436 159.334 557.419 157.668C560.401 155.913 562.77 153.457 564.525 150.298C566.279 147.052 567.157 143.192 567.157 138.718Z" fill="black"/>
<path d="M613.048 93.5814C609.802 93.5814 607.082 92.5725 604.889 90.5547C602.784 88.4492 601.731 85.8612 601.731 82.7907C601.731 79.7202 602.784 77.176 604.889 75.1583C607.082 73.0528 609.802 72 613.048 72C616.294 72 618.97 73.0528 621.075 75.1583C623.268 77.176 624.365 79.7202 624.365 82.7907C624.365 85.8612 623.268 88.4492 621.075 90.5547C618.97 92.5725 616.294 93.5814 613.048 93.5814ZM622.128 102.267V175.17H603.705V102.267H622.128Z" fill="black"/>
<path d="M759.762 113.584C762.13 109.724 765.201 106.697 768.973 104.504C772.833 102.31 777.22 101.214 782.133 101.214V120.558H777.264C771.473 120.558 767.087 121.918 764.104 124.638C761.209 127.357 759.762 132.095 759.762 138.85V175.17H741.339V102.267H759.762V113.584Z" fill="black"/>
<path d="M826.914 176.354C819.895 176.354 813.579 174.819 807.964 171.748C802.349 168.59 797.919 164.16 794.673 158.457C791.515 152.755 789.936 146.175 789.936 138.718C789.936 131.261 791.559 124.681 794.805 118.979C798.138 113.277 802.656 108.89 808.359 105.82C814.061 102.661 820.422 101.082 827.44 101.082C834.458 101.082 840.819 102.661 846.521 105.82C852.223 108.89 856.698 113.277 859.944 118.979C863.277 124.681 864.944 131.261 864.944 138.718C864.944 146.175 863.233 152.755 859.812 158.457C856.478 164.16 851.916 168.59 846.126 171.748C840.424 174.819 834.02 176.354 826.914 176.354ZM826.914 160.299C830.247 160.299 833.362 159.51 836.257 157.931C839.24 156.264 841.608 153.807 843.363 150.562C845.117 147.316 845.995 143.368 845.995 138.718C845.995 131.787 844.152 126.48 840.468 122.795C836.871 119.023 832.44 117.137 827.177 117.137C821.913 117.137 817.483 119.023 813.886 122.795C810.377 126.48 808.622 131.787 808.622 138.718C808.622 145.649 810.333 151 813.754 154.773C817.263 158.457 821.65 160.299 826.914 160.299Z" fill="black"/>
<path d="M895.302 160.036H927.806V175.17H874.379V160.299L906.225 117.4H874.51V102.267H927.411V117.137L895.302 160.036Z" fill="black"/>
<path d="M635.856 129.112C635.856 120.076 637.874 112.005 641.909 104.899C646.032 97.7047 651.603 92.1339 658.621 88.1861C665.728 84.1506 673.667 82.1328 682.44 82.1328C692.704 82.1328 701.697 84.7647 709.417 90.0284C713.123 92.5557 716.294 95.548 718.929 99.0055C723.276 104.711 718.213 111.873 711.04 111.873C706.992 111.873 703.481 109.383 700.805 106.345C699.266 104.598 697.487 103.151 695.468 102.003C691.695 99.8102 687.309 98.7136 682.308 98.7136C676.957 98.7136 672.176 99.9857 667.965 102.53C663.841 104.986 660.595 108.495 658.227 113.057C655.946 117.619 654.805 122.971 654.805 129.112C654.805 135.165 655.946 140.517 658.227 145.166C660.595 149.728 663.841 153.281 667.965 155.825C672.176 158.282 676.957 159.51 682.308 159.51C687.309 159.51 691.695 158.413 695.468 156.22C697.49 155.025 699.271 153.542 700.812 151.769C703.473 148.707 706.997 146.219 711.054 146.219C718.229 146.219 723.309 153.375 718.991 159.105C716.344 162.618 713.153 165.648 709.417 168.195C701.784 173.371 692.792 175.959 682.44 175.959C673.667 175.959 665.728 173.985 658.621 170.037C651.603 166.002 646.032 160.431 641.909 153.325C637.874 146.219 635.856 138.148 635.856 129.112Z" fill="black"/>
<g opacity="0.98" filter="url(#filter0_di_1_637)">
<path d="M141.512 35C141.513 35 141.513 35.0002 141.513 35.0005C141.513 35.0008 141.513 35.001 141.513 35.001C153.004 35.0011 164.382 37.2641 174.997 41.6611C185.613 46.0584 195.26 52.5038 203.385 60.6289C211.51 68.7539 217.956 78.3998 222.353 89.0156C226.75 99.6315 229.013 111.01 229.013 122.501C229.013 132.664 232.022 142.566 237.995 150.788C243.969 159.01 252.392 165.13 262.058 168.271C271.723 171.411 282.135 171.411 291.801 168.271C295.168 167.176 298.384 165.721 301.399 163.941C310.761 158.412 322.994 155.969 331.791 162.36C340.587 168.751 342.652 181.28 334.459 188.429C325.616 196.145 315.258 202.049 303.968 205.718C286.394 211.428 267.464 211.428 249.891 205.718C232.317 200.008 217.002 188.881 206.141 173.932C195.28 158.983 189.43 140.979 189.43 122.501C189.43 116.181 188.393 109.923 185.975 104.084C183.556 98.2453 180.011 92.9404 175.542 88.4717C171.074 84.003 165.769 80.4576 159.93 78.0391C154.456 75.7717 148.613 74.7194 142.697 74.5967L141.513 74.584H132.137C120.631 74.584 111.304 83.9114 111.304 95.4173V150.625C111.304 161.556 102.443 170.417 91.5125 170.417C80.5819 170.417 71.7209 161.556 71.7209 150.625V55.8333C71.7209 44.3274 81.0483 35 92.5543 35H141.512Z" fill="url(#paint0_linear_1_637)"/>
</g>
<g filter="url(#filter1_di_1_637)">
<path d="M249.89 39.2842C267.464 33.5743 286.394 33.5743 303.967 39.2842C315.257 42.9525 325.615 48.8564 334.458 56.5731C342.651 63.7218 340.586 76.2512 331.79 82.6422C322.994 89.033 310.761 86.5897 301.398 81.0612C298.384 79.2811 295.167 77.8255 291.8 76.7314C282.135 73.591 271.723 73.5909 262.057 76.7314C252.392 79.872 243.968 85.992 237.995 94.2139C232.021 102.436 229.012 112.338 229.012 122.501C229.012 133.992 226.749 145.37 222.352 155.986C217.955 166.602 211.509 176.248 203.384 184.373C195.259 192.498 185.613 198.944 174.997 203.341C164.713 207.601 153.713 209.857 142.589 209.994L141.512 210.001H131.096C120.165 210.001 111.304 201.14 111.304 190.209C111.304 179.279 120.165 170.418 131.096 170.418H141.512C147.832 170.418 154.091 169.381 159.929 166.963C165.768 164.544 171.073 160.999 175.542 156.53C180.01 152.062 183.556 146.757 185.974 140.918C188.393 135.079 189.429 128.821 189.429 122.501C189.429 104.023 195.279 86.0193 206.14 71.0703C217.001 56.1213 232.317 44.9943 249.89 39.2842Z" fill="url(#paint1_linear_1_637)"/>
</g>
<g filter="url(#filter2_di_1_637)">
<rect x="74.8459" y="175.625" width="31.25" height="31.25" rx="15.625" fill="#1573FF"/>
</g>
<defs>
<filter id="filter0_di_1_637" x="67.5543" y="35" width="276.231" height="183.333" filterUnits="userSpaceOnUse" color-interpolation-filters="sRGB">
<feFlood flood-opacity="0" result="BackgroundImageFix"/>
<feColorMatrix in="SourceAlpha" type="matrix" values="0 0 0 0 0 0 0 0 0 0 0 0 0 0 0 0 0 0 127 0" result="hardAlpha"/>
<feOffset dy="4.16667"/>
<feGaussianBlur stdDeviation="2.08333"/>
<feComposite in2="hardAlpha" operator="out"/>
<feColorMatrix type="matrix" values="0 0 0 0 0 0 0 0 0 0 0 0 0 0 0 0 0 0 0.25 0"/>
<feBlend mode="normal" in2="BackgroundImageFix" result="effect1_dropShadow_1_637"/>
<feBlend mode="normal" in="SourceGraphic" in2="effect1_dropShadow_1_637" result="shape"/>
<feColorMatrix in="SourceAlpha" type="matrix" values="0 0 0 0 0 0 0 0 0 0 0 0 0 0 0 0 0 0 127 0" result="hardAlpha"/>
<feOffset dy="4.16667"/>
<feGaussianBlur stdDeviation="2.08333"/>
<feComposite in2="hardAlpha" operator="arithmetic" k2="-1" k3="1"/>
<feColorMatrix type="matrix" values="0 0 0 0 0 0 0 0 0 0 0 0 0 0 0 0 0 0 0.25 0"/>
<feBlend mode="normal" in2="shape" result="effect2_innerShadow_1_637"/>
</filter>
<filter id="filter1_di_1_637" x="107.138" y="35.002" width="236.647" height="183.332" filterUnits="userSpaceOnUse" color-interpolation-filters="sRGB">
<feFlood flood-opacity="0" result="BackgroundImageFix"/>
<feColorMatrix in="SourceAlpha" type="matrix" values="0 0 0 0 0 0 0 0 0 0 0 0 0 0 0 0 0 0 127 0" result="hardAlpha"/>
<feOffset dy="4.16667"/>
<feGaussianBlur stdDeviation="2.08333"/>
<feComposite in2="hardAlpha" operator="out"/>
<feColorMatrix type="matrix" values="0 0 0 0 0 0 0 0 0 0 0 0 0 0 0 0 0 0 0.25 0"/>
<feBlend mode="normal" in2="BackgroundImageFix" result="effect1_dropShadow_1_637"/>
<feBlend mode="normal" in="SourceGraphic" in2="effect1_dropShadow_1_637" result="shape"/>
<feColorMatrix in="SourceAlpha" type="matrix" values="0 0 0 0 0 0 0 0 0 0 0 0 0 0 0 0 0 0 127 0" result="hardAlpha"/>
<feOffset dy="4.16667"/>
<feGaussianBlur stdDeviation="2.08333"/>
<feComposite in2="hardAlpha" operator="arithmetic" k2="-1" k3="1"/>
<feColorMatrix type="matrix" values="0 0 0 0 0 0 0 0 0 0 0 0 0 0 0 0 0 0 0.25 0"/>
<feBlend mode="normal" in2="shape" result="effect2_innerShadow_1_637"/>
</filter>
<filter id="filter2_di_1_637" x="70.6793" y="175.625" width="39.5833" height="39.5833" filterUnits="userSpaceOnUse" color-interpolation-filters="sRGB">
<feFlood flood-opacity="0" result="BackgroundImageFix"/>
<feColorMatrix in="SourceAlpha" type="matrix" values="0 0 0 0 0 0 0 0 0 0 0 0 0 0 0 0 0 0 127 0" result="hardAlpha"/>
<feOffset dy="4.16667"/>
<feGaussianBlur stdDeviation="2.08333"/>
<feComposite in2="hardAlpha" operator="out"/>
<feColorMatrix type="matrix" values="0 0 0 0 0 0 0 0 0 0 0 0 0 0 0 0 0 0 0.25 0"/>
<feBlend mode="normal" in2="BackgroundImageFix" result="effect1_dropShadow_1_637"/>
<feBlend mode="normal" in="SourceGraphic" in2="effect1_dropShadow_1_637" result="shape"/>
<feColorMatrix in="SourceAlpha" type="matrix" values="0 0 0 0 0 0 0 0 0 0 0 0 0 0 0 0 0 0 127 0" result="hardAlpha"/>
<feOffset dy="4.16667"/>
<feGaussianBlur stdDeviation="2.08333"/>
<feComposite in2="hardAlpha" operator="arithmetic" k2="-1" k3="1"/>
<feColorMatrix type="matrix" values="0 0 0 0 0 0 0 0 0 0 0 0 0 0 0 0 0 0 0.25 0"/>
<feBlend mode="normal" in2="shape" result="effect2_innerShadow_1_637"/>
</filter>
<linearGradient id="paint0_linear_1_637" x1="84.8652" y1="151.146" x2="132.44" y2="269.127" gradientUnits="userSpaceOnUse">
<stop stop-color="#1573FF"/>
<stop offset="1" stop-color="#810AFF"/>
</linearGradient>
<linearGradient id="paint1_linear_1_637" x1="101.245" y1="191.251" x2="233.26" y2="243.622" gradientUnits="userSpaceOnUse">
<stop stop-color="#1573FF"/>
<stop offset="1" stop-color="#810AFF"/>
</linearGradient>
</defs>
</svg>
